<svg width="24" height="25" viewBox="0 0 24 25" fill="none" xmlns="http://www.w3.org/2000/svg">
<path d="M17.0492 20.7741C16.0692 21.7241 14.9992 21.5741 13.9692 21.1241C12.8792 20.6641 11.8792 20.6441 10.7292 21.1241C9.28919 21.7441 8.52919 21.5641 7.66919 20.7741C2.78919 15.7441 3.50919 8.08414 9.04919 7.80414C10.3992 7.87414 11.3392 8.54414 12.1292 8.60414C13.3092 8.36414 14.4392 7.67414 15.6992 7.76414C17.2092 7.88414 18.3492 8.48414 19.0992 9.56414C15.9792 11.4341 16.7192 15.5441 19.5792 16.6941C19.0092 18.1941 18.2692 19.6841 17.0392 20.7841L17.0492 20.7741ZM12.0292 7.74414C11.8792 5.51414 13.6892 3.67414 15.7692 3.49414C16.0592 6.07414 13.4292 7.99414 12.0292 7.74414Z" fill="white"/>
</svg>
