<svg xmlns="http://www.w3.org/2000/svg" width="24" height="24" viewBox="0 0 24 24" fill="none">
  <path d="M15 18H9C9 18.7956 9.31607 19.5587 9.87868 20.1213C10.4413 20.6839 11.2044 21 12 21C12.7956 21 13.5587 20.6839 14.1213 20.1213C14.6839 19.5587 15 18.7956 15 18Z" stroke="#FF66C4" strokeWidth="0.96" strokeLinecap="round" strokeLinejoin="round"/>
  <path d="M19.3799 14.3798C19.7773 14.7779 20.0004 15.3174 20.0001 15.8798C20.0001 16.1583 19.9452 16.434 19.8387 16.6912C19.7321 16.9484 19.576 17.1821 19.3791 17.379C19.1822 17.5759 18.9485 17.7321 18.6913 17.8386C18.434 17.9452 18.1583 18 17.8799 18H6.11992C5.84147 18.0001 5.56575 17.9453 5.30849 17.8387C5.05123 17.7322 4.81748 17.576 4.6206 17.3792C4.42371 17.1823 4.26754 16.9485 4.16102 16.6913C4.05449 16.434 3.99969 16.1583 3.99976 15.8798C3.99948 15.3174 4.22254 14.7779 4.61992 14.3798L5.99992 12.9998V9C5.99992 7.4087 6.63206 5.88258 7.75727 4.75736C8.88249 3.63214 10.4086 3 11.9999 3C13.5912 3 15.1173 3.63214 16.2426 4.75736C17.3678 5.88258 17.9999 7.4087 17.9999 9V12.9998L19.3799 14.3798Z" stroke="white" strokeWidth="0.96" strokeLinecap="round" strokeLinejoin="round"/>
</svg>