<svg width="25" height="26" viewBox="0 0 25 26" fill="none" xmlns="http://www.w3.org/2000/svg">
<path d="M7.2915 20.9961H4.1665C4.02969 20.9961 3.89421 20.9691 3.76782 20.9168C3.64143 20.8644 3.52659 20.7876 3.42987 20.6909C3.33315 20.5941 3.25645 20.4792 3.20414 20.3528C3.15183 20.2264 3.12493 20.0909 3.125 19.9541V8.49609M11.4585 12.6626H17.7085M11.4585 8.49609H17.7085" stroke="white" stroke-linecap="round" stroke-linejoin="round"/>
<path d="M20.8335 4.32813H8.3335C8.19665 4.32806 8.06112 4.35497 7.93467 4.40731C7.80822 4.45965 7.69332 4.5364 7.59655 4.63317C7.49978 4.72994 7.42303 4.84484 7.37069 4.97129C7.31835 5.09774 7.29144 5.23327 7.2915 5.37012V15.7866C7.2915 15.9234 7.31846 16.0589 7.37083 16.1853C7.4232 16.3117 7.49996 16.4265 7.59673 16.5233C7.69349 16.62 7.80837 16.6967 7.93479 16.749C8.0612 16.8013 8.19669 16.8282 8.3335 16.8281H11.4585V19.9531L16.6665 16.8281H20.8335C21.1097 16.8281 21.3746 16.7184 21.57 16.5231C21.7653 16.3278 21.875 16.0628 21.875 15.7866V5.37012C21.8751 5.23331 21.8482 5.09782 21.7959 4.97141C21.7436 4.84499 21.6669 4.73012 21.5701 4.63335C21.4734 4.53658 21.3586 4.45982 21.2322 4.40745C21.1058 4.35508 20.9703 4.32813 20.8335 4.32813Z" stroke="url(#paint0_linear_7772_2513)" stroke-linecap="round" stroke-linejoin="round"/>
<defs>
<linearGradient id="paint0_linear_7772_2513" x1="23.1223" y1="23.6164" x2="6.106" y2="2.91043" gradientUnits="userSpaceOnUse">
<stop offset="0.211538" stop-color="#FF66C4"/>
<stop offset="1" stop-color="#4699FF"/>
</linearGradient>
</defs>
</svg>
