<svg width="23" height="24" viewBox="0 0 23 24" fill="none" xmlns="http://www.w3.org/2000/svg">
<path d="M15.115 5.80078C14.4194 5.80078 13.8555 6.36247 13.8555 7.05533C13.8555 7.74819 14.4194 8.30987 15.115 8.30987C15.8106 8.30987 16.3745 7.74819 16.3745 7.05533C16.3745 6.36247 15.8106 5.80078 15.115 5.80078Z" fill="white"/>
<path d="M8.81641 7.05533C8.81641 6.36247 9.38032 5.80078 10.0759 5.80078C10.7715 5.80078 11.3355 6.36247 11.3355 7.05533C11.3355 7.74819 10.7715 8.30987 10.0759 8.30987C9.38032 8.30987 8.81641 7.74819 8.81641 7.05533Z" fill="white"/>
<path d="M13.2243 2.03743C13.2243 1.691 12.9422 1.41016 12.5945 1.41016C12.2467 1.41016 11.9647 1.691 11.9647 2.03743V2.6647H8.18616C7.14273 2.6647 6.29688 3.50722 6.29688 4.54652V9.5647C6.29688 10.604 7.14273 11.4465 8.18616 11.4465H17.0028C18.0462 11.4465 18.8921 10.604 18.8921 9.5647V4.54652C18.8921 3.50722 18.0462 2.6647 17.0028 2.6647H13.2243V2.03743ZM8.18616 3.91925H17.0028C17.3506 3.91925 17.6326 4.20009 17.6326 4.54652V9.5647C17.6326 9.91113 17.3506 10.192 17.0028 10.192H8.18616C7.83836 10.192 7.5564 9.91113 7.5564 9.5647V4.54652C7.5564 4.20009 7.83836 3.91925 8.18616 3.91925Z" fill="white"/>
<path d="M12.91 21.4807C16.2044 21.4386 18.1936 20.7338 19.361 19.6729C20.4634 18.671 20.7325 17.4447 20.7753 16.4669H20.782V15.6019C20.782 14.3482 19.7618 13.332 18.5032 13.332H14.4844V13.3281H10.7058V13.332H6.68706C5.42848 13.332 4.4082 14.3482 4.4082 15.6019V16.4669H4.41492C4.45772 17.4447 4.72682 18.671 5.8292 19.6729C6.9966 20.7338 8.98584 21.4386 12.2802 21.4807V21.4827H12.91V21.4807ZM6.68706 14.5866H18.5032C19.0662 14.5866 19.5225 15.0411 19.5225 15.6019V16.1509C19.5225 17.016 19.3572 17.978 18.5121 18.7461C17.6462 19.5331 15.9461 20.2281 12.5951 20.2281C9.24409 20.2281 7.54403 19.5331 6.67817 18.7461C5.83301 17.978 5.66773 17.016 5.66773 16.1509V15.6019C5.66773 15.0411 6.12409 14.5866 6.68706 14.5866Z" fill="url(#paint0_linear_7960_13903)"/>
<defs>
<linearGradient id="paint0_linear_7960_13903" x1="22.1824" y1="23.3945" x2="16.1472" y2="7.59551" gradientUnits="userSpaceOnUse">
<stop offset="0.211538" stop-color="#FF66C4"/>
<stop offset="1" stop-color="#4699FF"/>
</linearGradient>
</defs>
</svg>
