<svg width="25" height="26" viewBox="0 0 25 26" fill="none" xmlns="http://www.w3.org/2000/svg">
<path d="M20.8335 4.32871C20.4091 3.93835 19.8473 3.73227 19.2712 3.75571C18.695 3.77914 18.1517 4.03017 17.7605 4.45371L10.594 11.6207L9.375 15.7872L13.5415 14.5687L20.7085 7.45371C20.9259 7.2592 21.102 7.02301 21.2263 6.75915C21.3507 6.49529 21.4208 6.20913 21.4324 5.91767C21.4441 5.6262 21.3971 5.33537 21.2942 5.06242C21.1913 4.78946 21.0346 4.53996 20.8335 4.32871Z" stroke="white" stroke-linecap="round" stroke-linejoin="round"/>
<path d="M12.5 3.28711H4.1665C3.89028 3.28711 3.62537 3.39684 3.43005 3.59216C3.23473 3.78748 3.125 4.05239 3.125 4.32861V20.9956C3.125 21.2718 3.23473 21.5367 3.43005 21.7321C3.62537 21.9274 3.89028 22.0371 4.1665 22.0371H20.8335C21.1097 22.0371 21.3746 21.9274 21.57 21.7321C21.7653 21.5367 21.875 21.2718 21.875 20.9956V12.6621" stroke="url(#paint0_linear_7772_2599)" stroke-linecap="round" stroke-linejoin="round"/>
<defs>
<linearGradient id="paint0_linear_7772_2599" x1="23.4786" y1="26.433" x2="3.37585" y2="0.224365" gradientUnits="userSpaceOnUse">
<stop offset="0.211538" stop-color="#FF66C4"/>
<stop offset="1" stop-color="#4699FF"/>
</linearGradient>
</defs>
</svg>
