<svg width="24" height="25" viewBox="0 0 24 25" fill="none" xmlns="http://www.w3.org/2000/svg">
<g clip-path="url(#clip0_7772_2557)">
<path d="M17.5701 20.3625C16.5841 19.3794 15.9272 18.1146 15.6901 16.7425C15.4103 14.3701 15.33 11.9784 15.4501 9.59253C15.4371 9.52111 15.3995 9.4565 15.3438 9.40998C15.288 9.36347 15.2177 9.33799 15.1451 9.33799C15.0725 9.33799 15.0022 9.36347 14.9465 9.40998C14.8908 9.4565 14.8531 9.52111 14.8401 9.59253C14.6457 12.0287 14.6457 14.4764 14.8401 16.9125C14.9581 17.6195 15.1501 18.3125 15.4101 18.9825C15.7226 19.5886 16.1052 20.1558 16.5501 20.6725C14.7501 21.6725 8.92013 21.2325 7.10013 21.1425C5.50013 21.0625 4.99013 21.3725 4.71013 20.1425C4.30411 17.258 4.1902 14.3399 4.37013 11.4325C4.54132 10.3347 4.59162 9.22136 4.52013 8.11253C4.45013 7.58253 3.93013 7.83253 3.97013 8.23253C3.62317 10.4298 3.42937 12.6484 3.39013 14.8725C3.36613 16.8255 3.49013 18.7775 3.76013 20.7125C3.83569 21.085 4.02235 21.4257 4.29548 21.6899C4.56862 21.9541 4.9154 22.1294 5.29013 22.1925C5.85588 22.2803 6.42761 22.3238 7.00013 22.3225C9.43613 22.5505 11.8881 22.5745 14.3301 22.3925C15.8301 22.2125 18.4101 21.5725 17.5701 20.3625Z" fill="url(#paint0_linear_7772_2557)"/>
<path d="M5.62004 8.1025C7.33004 8.1025 14.42 8.4025 15.92 8.1025C16.1 8.06487 16.2661 7.97837 16.4 7.8525C16.766 7.40107 17.0201 6.86959 17.1417 6.30135C17.2634 5.73311 17.2491 5.14417 17.1 4.5825C16.56 2.8025 14.89 2.8125 13 2.8125C11.11 2.8125 9.18004 2.9725 7.85004 2.9125C6.52004 2.8525 4.63004 2.9125 4.55004 2.9125C3.08004 2.7525 1.40004 3.7725 0.740036 6.5225C0.365538 8.84004 0.125138 11.1773 0.0200358 13.5225C-0.036271 15.9678 0.0338224 18.4144 0.230036 20.8525C0.262734 20.9307 0.322689 20.9944 0.398773 21.0317C0.474857 21.069 0.5619 21.0775 0.643745 21.0555C0.725591 21.0335 0.796678 20.9825 0.843811 20.9121C0.890945 20.8417 0.910922 20.7565 0.900036 20.6725C0.777767 17.3963 0.921573 14.1155 1.33004 10.8625C1.61004 8.8625 1.56004 5.9925 2.91004 4.5625C3.0879 4.31929 3.3249 4.12551 3.5986 3.99952C3.8723 3.87352 4.17363 3.81948 4.47405 3.84251C4.77448 3.86555 5.06405 3.96489 5.31534 4.13114C5.56663 4.29738 5.77133 4.52502 5.91004 4.7925C6.05628 5.21936 6.07258 5.68002 5.95687 6.11615C5.84117 6.55228 5.59865 6.94428 5.26004 7.2425C5.12004 7.3325 4.90004 8.0925 5.62004 8.1025ZM6.62004 4.3925C6.18004 3.5825 5.86004 3.5725 6.00004 3.5725C6.69004 3.5725 7.36004 3.6525 7.74004 3.6925C9.62004 3.8825 13.34 3.7525 15.04 4.0825C15.3141 4.12872 15.5636 4.26864 15.746 4.47838C15.9284 4.68812 16.0323 4.95466 16.04 5.2325C16.26 7.3925 15.19 7.0325 14.84 7.0725C12.65 7.3025 8.15004 7.4125 5.95004 7.4625C6.34318 7.06815 6.61447 6.56896 6.73151 6.02456C6.84855 5.48016 6.80638 4.91358 6.61004 4.3925H6.62004Z" fill="white"/>
<path d="M8.53993 10.2434C8.12105 10.5853 7.75391 10.9861 7.44993 11.4334C6.80993 12.3534 6.85993 12.6034 6.54993 12.4334C6.50298 12.3945 6.44864 12.3657 6.39019 12.3485C6.33175 12.3313 6.27042 12.3261 6.20993 12.3334C5.52993 12.6134 6.58993 13.7934 7.36993 13.3334C8.52993 12.4234 8.49993 11.4534 8.99993 10.7234C9.04353 10.659 9.06373 10.5816 9.05716 10.5041C9.05059 10.4266 9.01766 10.3537 8.96385 10.2975C8.91004 10.2414 8.83861 10.2054 8.76147 10.1955C8.68432 10.1857 8.60613 10.2025 8.53993 10.2434ZM10.7599 13.1234C11.4286 13.1054 12.0953 13.052 12.7599 12.9634C12.8501 12.9634 12.9366 12.9275 13.0004 12.8638C13.0641 12.8 13.0999 12.7135 13.0999 12.6234C13.2499 11.6834 9.28993 11.9534 9.22993 12.4534C9.16993 12.9534 10.5999 13.1034 10.7599 13.1234ZM8.19993 15.1734C7.60993 16.0734 7.32993 16.3034 6.72993 17.3034C6.64052 17.2866 6.55329 17.2598 6.46993 17.2234C6.45407 17.186 6.43079 17.1523 6.4015 17.1242C6.37222 17.096 6.33753 17.0742 6.29955 17.0599C6.26157 17.0456 6.22108 17.0391 6.18053 17.0409C6.13999 17.0427 6.10022 17.0527 6.06365 17.0703C6.02709 17.0879 5.99447 17.1128 5.96778 17.1433C5.94109 17.1739 5.92088 17.2096 5.90838 17.2482C5.89588 17.2868 5.89135 17.3276 5.89505 17.368C5.89876 17.4084 5.91062 17.4477 5.92993 17.4834C6.05893 17.7704 6.25793 18.0214 6.50993 18.2134C7.50993 18.9134 8.44993 16.5934 8.81993 15.4734C8.85343 15.3921 8.85463 15.301 8.82327 15.2189C8.79192 15.1367 8.73037 15.0697 8.65122 15.0314C8.57207 14.9931 8.48128 14.9864 8.39741 15.0128C8.31353 15.0392 8.24289 15.0966 8.19993 15.1734ZM12.9999 17.6734C13.0618 17.6068 13.0962 17.5192 13.0962 17.4284C13.0962 17.3375 13.0618 17.25 12.9999 17.1834C12.7899 16.8834 11.7099 16.7934 11.4699 16.8034C10.7471 16.8491 10.0321 16.98 9.33993 17.1934C9.22993 17.3434 9.17993 17.4634 9.27993 17.5734C9.37993 17.6834 9.14993 17.6334 10.6199 17.9634C11.4196 17.9287 12.2153 17.8317 12.9999 17.6734ZM23.8599 3.88336C23.2699 2.10336 20.9199 3.01336 20.2499 3.98336C20.1276 4.16342 20.0615 4.37571 20.0599 4.59336C18.4299 4.81336 18.3899 7.28336 18.3599 8.81336C18.4299 11.0234 18.3599 11.6434 18.7899 11.6034C19.2199 11.5634 19.1099 11.2034 19.4199 8.87336C19.7299 6.54336 19.5199 5.87336 20.0699 5.31336C20.1499 5.31336 20.0699 9.72336 20.2599 10.1634C19.9899 11.2234 19.8099 16.5434 19.7399 17.9934C19.6733 18.484 19.6533 18.9774 19.6799 19.4734C19.9062 20.3334 20.4445 21.0784 21.1899 21.5634C21.8099 21.8734 22.1899 21.2834 22.3999 20.8534C22.9556 20.1873 23.2474 19.3404 23.2199 18.4734C23.2199 16.1334 23.1599 17.8234 23.4199 9.99336C23.6247 9.4143 23.7394 8.80723 23.7599 8.19336C23.8899 6.88336 24.1699 4.80336 23.8599 3.88336ZM21.1299 4.67336C21.3918 4.41783 21.7158 4.23513 22.0699 4.14336C22.6099 4.04336 22.6299 3.99336 22.7299 4.20336C22.8059 4.38336 22.8499 4.57636 22.8599 4.77336C22.8983 6.3853 22.8415 7.9981 22.6899 9.60336C22.5999 9.60336 22.4299 9.68336 22.3699 9.68336H20.8699C20.7999 9.10336 20.7799 10.4334 21.1299 4.67336ZM21.4099 20.3134C21.1395 20.0277 20.9347 19.6864 20.8099 19.3134C20.8899 16.6934 20.6299 12.5834 20.8099 10.4234C21.4246 10.4834 22.0413 10.5034 22.6599 10.4834L22.1899 16.6734C22.0899 19.4134 22.1999 19.0634 21.4099 20.2734V20.3134Z" fill="white"/>
</g>
<defs>
<linearGradient id="paint0_linear_7772_2557" x1="18.9615" y1="25.9603" x2="3.10207" y2="5.78391" gradientUnits="userSpaceOnUse">
<stop offset="0.211538" stop-color="#FF66C4"/>
<stop offset="1" stop-color="#4699FF"/>
</linearGradient>
<clipPath id="clip0_7772_2557">
<rect width="24" height="24" fill="white" transform="translate(0 0.662109)"/>
</clipPath>
</defs>
</svg>
