<svg width="24" height="25" viewBox="0 0 24 25" fill="none" xmlns="http://www.w3.org/2000/svg">
<path d="M7 17.6621C8.38071 17.6621 9.5 16.5428 9.5 15.1621C9.5 13.7814 8.38071 12.6621 7 12.6621C5.61929 12.6621 4.5 13.7814 4.5 15.1621C4.5 16.5428 5.61929 17.6621 7 17.6621Z" fill="url(#paint0_linear_7772_2540)" stroke="white" strokeLinecap="round" strokeLinejoin="round"/>
<path d="M17 17.6621C18.3807 17.6621 19.5 16.5428 19.5 15.1621C19.5 13.7814 18.3807 12.6621 17 12.6621C15.6193 12.6621 14.5 13.7814 14.5 15.1621C14.5 16.5428 15.6193 17.6621 17 17.6621Z" fill="url(#paint1_linear_7772_2540)" stroke="white" strokeLinecap="round" strokeLinejoin="round"/>
<path d="M12 7.66211C13.3807 7.66211 14.5 6.54282 14.5 5.16211C14.5 3.7814 13.3807 2.66211 12 2.66211C10.6193 2.66211 9.5 3.7814 9.5 5.16211C9.5 6.54282 10.6193 7.66211 12 7.66211Z" fill="url(#paint2_linear_7772_2540)" stroke="white" strokeLinecap="round" strokeLinejoin="round"/>
<path d="M12 22.6621C12 19.9007 9.7614 17.6621 7 17.6621C4.23857 17.6621 2 19.9007 2 22.6621" stroke="white" strokeLinecap="round" strokeLinejoin="round"/>
<path d="M22 22.6621C22 19.9007 19.7614 17.6621 17 17.6621C14.2386 17.6621 12 19.9007 12 22.6621" stroke="white" strokeLinecap="round" strokeLinejoin="round"/>
<path d="M17 12.6621C17 9.90071 14.7614 7.66211 12 7.66211C9.2386 7.66211 7 9.90071 7 12.6621" stroke="white" strokeLinecap="round" strokeLinejoin="round"/>
<defs>
<linearGradient id="paint0_linear_7772_2540" x1="9.92763" y1="18.8343" x2="4.56689" y2="11.8454" gradientUnits="userSpaceOnUse">
<stop offset="0.211538" stop-color="#FF66C4"/>
<stop offset="1" stop-color="#4699FF"/>
</linearGradient>
<linearGradient id="paint1_linear_7772_2540" x1="19.9276" y1="18.8343" x2="14.5669" y2="11.8454" gradientUnits="userSpaceOnUse">
<stop offset="0.211538" stop-color="#FF66C4"/>
<stop offset="1" stop-color="#4699FF"/>
</linearGradient>
<linearGradient id="paint2_linear_7772_2540" x1="14.9276" y1="8.83435" x2="9.56689" y2="1.84538" gradientUnits="userSpaceOnUse">
<stop offset="0.211538" stop-color="#FF66C4"/>
<stop offset="1" stop-color="#4699FF"/>
</linearGradient>
</defs>
</svg>
