<svg xmlns="http://www.w3.org/2000/svg" width="24" height="24" viewBox="0 0 24 24" fill="none">
  <path d="M8.99992 15H14.9999C15.6565 15 16.3067 15.1293 16.9134 15.3806C17.52 15.6319 18.0713 16.0002 18.5356 16.4645C18.9999 16.9288 19.3682 17.48 19.6195 18.0867C19.8707 18.6933 20.0001 19.3435 20.0001 20.0002C20.0001 20.1315 19.9742 20.2616 19.9239 20.3829C19.8736 20.5042 19.8 20.6145 19.7071 20.7073C19.6142 20.8002 19.5039 20.8738 19.3825 20.924C19.2612 20.9742 19.1311 21.0001 18.9998 21H5.00008C4.86873 21.0001 4.73867 20.9742 4.61731 20.924C4.49594 20.8738 4.38567 20.8002 4.29277 20.7073C4.19988 20.6145 4.12619 20.5042 4.07591 20.3829C4.02563 20.2616 3.99976 20.1315 3.99976 20.0002C3.99976 19.3435 4.12909 18.6933 4.38037 18.0867C4.63165 17.48 4.99996 16.9288 5.46427 16.4645C6.40198 15.5268 7.67379 15 8.99992 15Z" stroke="white" strokeWidth="0.96" strokeLinecap="round" strokeLinejoin="round"/>
  <path d="M11.9998 11.0002C13.0607 11.0002 14.0782 10.5787 14.8283 9.82856C15.5785 9.0784 15.9999 8.06097 15.9999 7.00008C15.9999 5.93919 15.5785 4.92176 14.8283 4.1716C14.0782 3.42144 13.0607 3 11.9998 3C10.9389 3 9.92151 3.42144 9.17135 4.1716C8.42119 4.92176 7.99976 5.93919 7.99976 7.00008C7.99976 8.06097 8.42119 9.0784 9.17135 9.82856C9.92151 10.5787 10.9389 11.0002 11.9998 11.0002Z" stroke="#FF66C4" strokeWidth="0.96" strokeLinecap="round" strokeLinejoin="round"/>
</svg>