<svg width="24" height="25" viewBox="0 0 24 25" fill="none" xmlns="http://www.w3.org/2000/svg">
<g clip-path="url(#clip0_7772_2585)">
<path fill-rule="evenodd" clip-rule="evenodd" d="M23.7 9.72812C23.63 8.79812 23.58 7.87812 23.5 6.94912C23.45 6.32912 23.4 5.70912 23.32 5.09012C23.32 4.96012 23.25 4.09012 23.18 3.72012C23.162 3.61502 23.1202 3.51542 23.0578 3.42894C22.9954 3.34246 22.914 3.27138 22.82 3.22112C21.6539 2.82888 20.4332 2.62302 19.203 2.61112C17.373 2.56112 15.475 2.77112 13.886 2.85112C12.886 2.90112 11.886 3.00112 10.967 3.11112C8.738 3.37112 6.519 3.74112 4.271 3.94112C4.18613 3.94112 4.10473 3.97483 4.04472 4.03484C3.98471 4.09486 3.951 4.17625 3.951 4.26112C3.951 4.34599 3.98471 4.42738 4.04472 4.48739C4.10473 4.5474 4.18613 4.58112 4.271 4.58112C6.529 4.43112 8.758 4.10112 11.007 3.87112C12.007 3.78112 13.006 3.68112 13.916 3.68112C15.495 3.63112 17.364 3.46112 19.163 3.55112C20.163 3.57812 21.154 3.73912 22.111 4.03112C22.001 4.31112 22.301 5.11012 22.311 5.21012L22.621 9.80712C22.671 10.5471 22.911 11.5771 22.911 12.5071C22.9663 12.9858 22.8376 13.4677 22.551 13.8551C22.1557 14.2825 21.6393 14.579 21.071 14.7051C20.081 14.8781 19.078 14.9621 18.073 14.9551C15.834 15.1151 13.626 15.3751 11.397 15.5351C10.457 15.6051 9.517 15.6551 8.558 15.6751C7.585 15.7191 6.609 15.6891 5.64 15.5851C5.05895 15.5545 4.50245 15.341 4.05 14.9751C3.92871 14.8073 3.85292 14.6109 3.83 14.4051C3.761 13.9651 3.77 13.4851 3.731 13.1651C3.631 12.1061 3.511 10.6771 3.441 9.30812C3.371 7.93912 3.311 6.48912 3.341 5.45012C3.34117 5.3739 3.31232 5.30047 3.26031 5.24476C3.20831 5.18904 3.13704 5.1552 3.061 5.15012C2.98579 5.15007 2.9135 5.17925 2.85939 5.23149C2.80528 5.28373 2.77359 5.35495 2.771 5.43012V9.33812C2.771 10.7671 2.911 12.1761 3.001 13.2261C3.011 13.7381 3.051 14.2478 3.121 14.7551C3.17565 15.0266 3.2958 15.2806 3.471 15.4951C3.889 15.9031 4.417 16.1811 4.991 16.2941C6.171 16.5251 7.376 16.6191 8.578 16.5741C9.578 16.5741 10.508 16.5741 11.477 16.5041C13.706 16.3841 15.914 16.1441 18.153 16.0241C19.2158 16.03 20.2767 15.9363 21.322 15.7441C22.0911 15.5654 22.7878 15.1574 23.32 14.5741C23.7189 14.1404 23.9587 13.584 24 12.9961C23.9875 11.9005 23.8872 10.8077 23.7 9.72812Z" fill="white"/>
<path fill-rule="evenodd" clip-rule="evenodd" d="M21.002 17.5436C20.9406 17.5278 20.8759 17.5306 20.816 17.5516C20.7562 17.5726 20.704 17.6109 20.666 17.6616C20.6404 17.6948 20.622 17.7329 20.612 17.7736C20.3686 18.7064 20.0714 19.6242 19.722 20.5226C19.526 21.0326 19.235 21.5006 18.862 21.9016C18.792 21.7816 18.363 21.9016 17.953 21.8416C16.823 21.6616 14.955 21.2216 12.906 20.7116C11.286 20.3116 9.53798 19.8526 7.90898 19.4026C5.51898 18.7726 3.34098 18.1636 2.01198 17.6736C1.69044 17.5605 1.37647 17.4269 1.07198 17.2736C0.996873 17.2391 0.926335 17.1955 0.861976 17.1436C0.816333 16.9801 0.816333 16.8072 0.861976 16.6436C0.921976 16.2346 1.07198 15.8046 1.13198 15.5056C1.26198 14.8556 1.43198 14.2256 1.59198 13.6756C1.91198 12.6266 2.21198 11.8866 2.21198 11.8866C2.22752 11.8488 2.23457 11.8079 2.23262 11.767C2.23067 11.7261 2.21978 11.6862 2.20071 11.6499C2.18164 11.6137 2.15486 11.5821 2.12225 11.5573C2.08964 11.5326 2.052 11.5153 2.01198 11.5066C1.97872 11.4901 1.94241 11.4807 1.90533 11.4788C1.86825 11.477 1.83119 11.4828 1.79646 11.496C1.76174 11.5091 1.7301 11.5293 1.70352 11.5552C1.67694 11.5811 1.65599 11.6122 1.64198 11.6466C1.64198 11.6466 1.30198 12.3966 0.931976 13.4666C0.731976 14.0266 0.531976 14.6656 0.361976 15.3356C0.210882 15.7893 0.0938897 16.2536 0.0119762 16.7246C-0.0210238 16.9946 0.0129762 17.2696 0.111976 17.5246C0.639393 18.0603 1.29261 18.4553 2.01198 18.6736C2.80198 18.9836 3.81098 19.3536 5.00998 19.6736C6.36998 20.0926 7.92898 20.5326 9.48798 20.9326C12.291 21.6726 15.134 22.2526 18.003 22.6716C18.43 22.7616 18.875 22.7276 19.283 22.5716C19.7805 22.0566 20.159 21.4387 20.392 20.7616C20.7273 19.8276 21.0006 18.875 21.212 17.9036C21.2257 17.8284 21.2121 17.7508 21.1736 17.6848C21.1351 17.6187 21.0742 17.5687 21.002 17.5436Z" fill="url(#paint0_linear_7772_2585)"/>
<path fill-rule="evenodd" clip-rule="evenodd" d="M6.19003 11.9869C6.21803 12.1696 6.25803 12.3496 6.31003 12.5269C6.37484 12.6603 6.48461 12.7665 6.62003 12.8269C6.72591 12.871 6.84308 12.8802 6.95455 12.8532C7.06602 12.8263 7.16601 12.7645 7.24003 12.6769C7.68003 12.2859 8.02203 11.7959 8.23903 11.2469C8.69903 10.1579 8.85903 8.79891 9.23803 7.79991C9.24845 7.75984 9.25074 7.71809 9.24476 7.67712C9.23878 7.63615 9.22465 7.5968 9.20321 7.56138C9.18178 7.52596 9.15346 7.49519 9.11994 7.4709C9.08641 7.4466 9.04837 7.42926 9.00803 7.41991C8.96868 7.40372 8.9265 7.39555 8.88395 7.39586C8.8414 7.39617 8.79935 7.40496 8.76024 7.42172C8.72113 7.43848 8.68576 7.46287 8.65619 7.49347C8.62662 7.52407 8.60345 7.56025 8.58803 7.59991C8.20803 8.40991 7.91803 9.47891 7.50803 10.4379C7.38737 10.7179 7.2477 10.9879 7.08903 11.2479L6.86903 10.5879C6.67727 10.0942 6.51367 9.59011 6.37903 9.07791C6.23903 8.55891 6.12903 8.07891 6.02903 7.50991C6.02538 7.4721 6.01407 7.43542 5.99579 7.40212C5.97751 7.36882 5.95265 7.33959 5.92271 7.3162C5.89278 7.29281 5.85839 7.27576 5.82166 7.26608C5.78493 7.25641 5.74661 7.25431 5.70903 7.25991C5.67227 7.26377 5.63663 7.27487 5.60418 7.29257C5.57173 7.31027 5.5431 7.33422 5.51995 7.36304C5.4968 7.39186 5.47959 7.42498 5.46931 7.46048C5.45902 7.49599 5.45587 7.53318 5.46003 7.56991C5.46003 8.12991 5.54003 8.67991 5.61003 9.22891C5.67403 9.78358 5.76737 10.3332 5.89003 10.8779L6.19003 11.9869ZM10.417 12.5269C10.4594 12.531 10.5021 12.5264 10.5426 12.5133C10.583 12.5002 10.6204 12.479 10.6523 12.4508C10.6841 12.4227 10.7099 12.3883 10.7279 12.3498C10.746 12.3112 10.7559 12.2694 10.757 12.2269C10.857 11.6569 11.027 11.1069 11.157 10.5379C11.247 10.1679 11.337 9.78791 11.397 9.40791C11.497 8.73891 11.507 8.08891 11.557 7.40991C11.5695 7.336 11.5538 7.26011 11.5131 7.19719C11.4723 7.13426 11.4095 7.08886 11.337 7.06991C11.2996 7.06265 11.2611 7.06285 11.2238 7.07048C11.1864 7.07812 11.1509 7.09304 11.1193 7.1144C11.0878 7.13577 11.0607 7.16315 11.0397 7.19498C11.0187 7.22681 11.0042 7.26247 10.997 7.29991C10.807 7.83991 10.577 8.36991 10.407 8.92891C10.337 9.16891 10.287 9.40891 10.237 9.65891C10.1884 9.90326 10.155 10.1504 10.137 10.3989C10.097 10.9882 10.097 11.5776 10.137 12.1669C10.1314 12.209 10.1343 12.2517 10.1454 12.2927C10.1565 12.3337 10.1756 12.372 10.2016 12.4055C10.2277 12.439 10.2602 12.467 10.2971 12.4879C10.3341 12.5087 10.3749 12.522 10.417 12.5269ZM14.165 7.67991C14.2517 7.60791 14.345 7.54791 14.445 7.49991C14.6998 7.36804 14.9789 7.28977 15.265 7.26991C15.435 7.25524 15.605 7.25524 15.775 7.26991C15.8508 7.27665 15.9263 7.25426 15.9861 7.2073C16.0459 7.16035 16.0856 7.09236 16.0971 7.01717C16.1086 6.94199 16.0909 6.86525 16.0478 6.8026C16.0047 6.73994 15.9394 6.69607 15.865 6.67991C15.6638 6.63904 15.46 6.61231 15.255 6.59991C15.0455 6.58041 14.8346 6.58041 14.625 6.59991C14.2891 6.65563 13.9668 6.77439 13.675 6.94991L13.205 7.33991C13.0781 7.47191 12.9806 7.62923 12.9187 7.80156C12.8568 7.97389 12.8321 8.15734 12.846 8.33991C12.8791 8.55145 12.9706 8.74955 13.1102 8.91192C13.2497 9.07428 13.4319 9.19445 13.636 9.25891C14.056 9.41891 14.576 9.42891 15.015 9.56891C15.1834 9.60432 15.3308 9.705 15.425 9.84891C15.725 10.3289 15.425 10.7579 15.045 11.0479C14.805 11.2393 14.5294 11.3812 14.2341 11.4653C13.9389 11.5494 13.6299 11.5741 13.325 11.5379C13.2417 11.5189 13.1542 11.532 13.08 11.5747C13.0059 11.6173 12.9506 11.6863 12.925 11.7679C12.913 11.8093 12.9094 11.8527 12.9145 11.8954C12.9197 11.9382 12.9334 11.9795 12.9549 12.0169C12.9763 12.0542 13.0051 12.0869 13.0395 12.1128C13.0739 12.1388 13.1132 12.1575 13.155 12.1679C13.6404 12.2721 14.1431 12.2642 14.6249 12.1446C15.1067 12.025 15.5548 11.797 15.935 11.4779C16.2523 11.2304 16.4702 10.8773 16.5491 10.4827C16.628 10.0882 16.5627 9.67838 16.365 9.32791C16.1927 9.03919 15.9338 8.81211 15.625 8.67891C15.135 8.44891 14.505 8.47891 13.995 8.29891C13.895 8.29891 13.805 8.29891 13.805 8.17891C13.802 8.07802 13.8338 7.97916 13.895 7.89891L14.165 7.67991ZM17.823 12.1369C17.953 11.5469 18.093 10.9669 18.243 10.3879H18.653C18.7318 10.3771 18.809 10.357 18.883 10.3279C19.0644 10.2599 19.241 10.1799 19.413 10.0879C19.4679 10.0769 19.5189 10.0518 19.5611 10.0149C19.6032 9.97809 19.6349 9.93084 19.653 9.87791C19.753 10.3879 19.823 10.8779 19.913 11.4079C19.9154 11.4504 19.9266 11.492 19.9457 11.53C19.9649 11.568 19.9917 11.6017 20.0244 11.6289C20.0572 11.6561 20.0952 11.6762 20.136 11.6881C20.1769 11.7 20.2198 11.7033 20.262 11.6979C20.3479 11.6878 20.4264 11.6445 20.4806 11.5772C20.5348 11.5099 20.5605 11.4239 20.552 11.3379C20.552 10.6479 20.502 9.93791 20.412 9.23791C20.357 8.74761 20.2463 8.26517 20.082 7.79991C19.9529 7.40789 19.7492 7.04454 19.482 6.72991C19.3029 6.53955 19.0686 6.41015 18.812 6.35991C18.671 6.35423 18.5319 6.3939 18.4151 6.47309C18.2983 6.55228 18.21 6.66682 18.163 6.79991C18.0417 7.14458 17.9384 7.49458 17.853 7.84991C17.723 8.39991 17.613 8.94891 17.533 9.49891C17.413 10.3289 17.333 11.1479 17.263 11.9869C17.2558 12.0237 17.2561 12.0616 17.2639 12.0983C17.2716 12.1351 17.2867 12.1698 17.3081 12.2006C17.3296 12.2314 17.357 12.2576 17.3888 12.2775C17.4205 12.2975 17.456 12.3109 17.493 12.3169C17.5605 12.331 17.6307 12.3206 17.6911 12.2876C17.7516 12.2546 17.7984 12.2012 17.823 12.1369ZM18.883 8.19891V7.82891C18.9677 7.95958 19.041 8.09624 19.103 8.23891C19.2877 8.63024 19.4277 9.03691 19.523 9.45891V9.58891C19.4906 9.55632 19.4514 9.53133 19.4082 9.51577C19.3649 9.5002 19.3188 9.49444 19.273 9.49891C19.083 9.49891 18.923 9.39891 18.733 9.36891C18.6566 9.36006 18.5794 9.36006 18.503 9.36891C18.653 8.96891 18.753 8.58891 18.883 8.19891Z" fill="white"/>
</g>
<defs>
<linearGradient id="paint0_linear_7772_2585" x1="23.0319" y1="25.3564" x2="14.3259" y2="3.93514" gradientUnits="userSpaceOnUse">
<stop offset="0.211538" stop-color="#FF66C4"/>
<stop offset="1" stop-color="#4699FF"/>
</linearGradient>
<clipPath id="clip0_7772_2585">
<rect width="24" height="24" fill="white" transform="translate(0 0.662109)"/>
</clipPath>
</defs>
</svg>
