<svg width="48" height="49" viewBox="0 0 48 49" fill="none" xmlns="http://www.w3.org/2000/svg">
    <g clip-path="url(#clip0_7772_14169)">
        <rect y="0.5625" width="48" height="48" rx="12" fill="#0F0E16" />
        <g filter="url(#filter0_f_7772_14169)">
            <circle cx="8" cy="3.5625" r="18" fill="url(#paint0_linear_7772_14169)" />
        </g>
        <path
            d="M27 30.5625H21C21 31.3581 21.3161 32.1212 21.8787 32.6838C22.4413 33.2464 23.2044 33.5625 24 33.5625C24.7956 33.5625 25.5587 33.2464 26.1213 32.6838C26.6839 32.1212 27 31.3581 27 30.5625Z"
            stroke="#FF66C4" strokeWidth="0.96" strokeLinecap="round" strokeLinejoin="round" />
        <path
            d="M31.3802 26.9423C31.7775 27.3404 32.0006 27.8799 32.0003 28.4423C32.0003 28.7208 31.9455 28.9965 31.8389 29.2537C31.7324 29.5109 31.5762 29.7446 31.3793 29.9415C31.1825 30.1384 30.9487 30.2946 30.6915 30.4011C30.4343 30.5077 30.1586 30.5625 29.8802 30.5625H18.1202C17.8417 30.5626 17.566 30.5078 17.3087 30.4012C17.0515 30.2947 16.8177 30.1385 16.6208 29.9417C16.424 29.7448 16.2678 29.511 16.1613 29.2538C16.0547 28.9965 15.9999 28.7208 16 28.4423C15.9997 27.8799 16.2228 27.3404 16.6202 26.9423L18.0002 25.5623V21.5625C18.0002 19.9712 18.6323 18.4451 19.7575 17.3199C20.8827 16.1946 22.4089 15.5625 24.0002 15.5625C25.5915 15.5625 27.1176 16.1946 28.2428 17.3199C29.368 18.4451 30.0002 19.9712 30.0002 21.5625V25.5623L31.3802 26.9423Z"
            stroke="white" strokeWidth="0.96" strokeLinecap="round" strokeLinejoin="round" />
    </g>
    <rect x="0.5" y="1.0625" width="47" height="47" rx="11.5" stroke="#FFF1FA" stroke-opacity="0.73"
        style="mix-blend-mode:overlay" />
    <defs>
        <filter id="filter0_f_7772_14169" x="-59.5" y="-63.9375" width="135" height="135" filterUnits="userSpaceOnUse"
            color-interpolation-filters="sRGB">
            <feFlood flood-opacity="0" result="BackgroundImageFix" />
            <feBlend mode="normal" in="SourceGraphic" in2="BackgroundImageFix" result="shape" />
            <feGaussianBlur stdDeviation="24.75" result="effect1_foregroundBlur_7772_14169" />
        </filter>
        <linearGradient id="paint0_linear_7772_14169" x1="29.0789" y1="30.0026" x2="-9.51837" y2="-20.318"
            gradientUnits="userSpaceOnUse">
            <stop offset="0.211538" stop-color="#FF66C4" />
            <stop offset="1" stop-color="#4699FF" />
        </linearGradient>
        <clipPath id="clip0_7772_14169">
            <rect y="0.5625" width="48" height="48" rx="12" fill="white" />
        </clipPath>
    </defs>
</svg>