<svg width="24" height="25" viewBox="0 0 24 25" fill="none" xmlns="http://www.w3.org/2000/svg">
<path d="M1.72547 16.0021L2.03943 16.8117C2.77918 18.7194 4.03601 20.3776 5.67468 21.6071C6.09118 21.9191 6.58581 22.0803 7.08728 22.0803C7.37146 22.0803 7.65759 22.0285 7.93298 21.9235C8.6947 21.6325 9.24499 20.9816 9.40515 20.1833L9.62927 19.0685C12.3163 19.1901 15.0262 18.9592 17.5956 18.3972C18.8939 18.11 19.9335 17.1564 20.3104 15.8996C20.7679 14.3234 20.9999 12.7092 20.9999 11.1008C20.9999 10.7346 20.9882 10.3688 20.9642 10.0036C20.9281 9.45233 20.4511 9.03339 19.9008 9.07098C19.35 9.10711 18.9325 9.58319 18.9681 10.1345C18.9891 10.4558 18.9999 10.7785 18.9999 11.1008C18.9999 12.5202 18.7948 13.9475 18.392 15.3332C18.226 15.8879 17.7552 16.3137 17.1659 16.4435C14.6019 17.0056 11.8949 17.2072 9.19227 17.0427C8.50721 16.9963 7.912 17.4689 7.77772 18.1296L7.44422 19.7892C7.41004 19.9587 7.28895 20.0285 7.21961 20.0549C7.15027 20.0817 7.01307 20.11 6.8744 20.007C5.53602 19.0026 4.50868 17.6476 3.9037 16.0881L3.60341 15.319C2.79189 12.5529 2.79384 9.62859 3.6078 6.86834C3.77382 6.31365 4.24452 5.88787 4.83192 5.75799C7.17128 5.25067 9.57118 5.03582 11.976 5.11444C12.5414 5.13397 12.9901 4.69989 13.0087 4.14813C13.0272 3.59637 12.5946 3.13397 12.0424 3.11542C9.47937 3.0285 6.90955 3.26093 4.40418 3.80438C3.10584 4.09149 2.06629 5.04511 1.6908 6.29804C0.766481 9.43231 0.764531 12.7468 1.68494 15.885C1.69275 15.9108 1.71521 15.9763 1.72547 16.0021Z" fill="white"/>
<path d="M20.8652 2.35652C20.5395 2.02986 20.1352 1.77986 19.6958 1.63289C18.6098 1.27156 17.4302 1.54646 16.6221 2.35555L12.4214 6.55575C11.9018 7.07528 11.5513 7.73055 11.4077 8.44979L11.0415 10.2808C10.935 10.8106 11.1001 11.3555 11.4819 11.7379C11.7881 12.0435 12.1977 12.21 12.6206 12.21C12.7261 12.21 12.8325 12.1998 12.9385 12.1783L14.7695 11.8121C15.4902 11.668 16.145 11.3175 16.664 10.7984L20.8642 6.59774C21.6724 5.79012 21.9492 4.61239 21.5869 3.52401C21.4404 3.08503 21.1904 2.68074 20.8652 2.35652ZM19.4502 5.18318L15.25 9.38435C15.0112 9.62312 14.709 9.78474 14.3769 9.85115L13.1167 10.1031L13.3686 8.84187C13.435 8.51082 13.5962 8.20906 13.8354 7.9698L18.0366 3.76912C18.227 3.57869 18.4795 3.47713 18.7397 3.47713C18.8476 3.47713 18.9565 3.49471 19.0625 3.53035C19.206 3.5782 19.3437 3.66267 19.4511 3.77058C19.5571 3.87654 19.6416 4.01374 19.6894 4.15632C19.811 4.52107 19.7192 4.91462 19.4502 5.18318Z" fill="url(#paint0_linear_7960_13990)"/>
<defs>
<linearGradient id="paint0_linear_7960_13990" x1="22.6615" y1="14.7265" x2="11.1537" y2="-0.276959" gradientUnits="userSpaceOnUse">
<stop offset="0.211538" stop-color="#FF66C4"/>
<stop offset="1" stop-color="#4699FF"/>
</linearGradient>
</defs>
</svg>
