<svg xmlns="http://www.w3.org/2000/svg" width="24" height="25" viewBox="0 0 24 25" fill="none">
  <g clip-path="url(#clip0_7772_2571)">
    <path fill-rule="evenodd" clip-rule="evenodd" d="M23.6599 3.38671C23.6534 2.92162 23.5221 2.46682 23.2799 2.06971C22.5849 1.62789 21.7949 1.35747 20.9749 1.28071C18.0007 0.855994 14.9993 0.649443 11.9949 0.66271C7.25394 0.66171 2.43394 1.04171 0.936936 2.04971C0.596936 2.43671 0.406936 2.93171 0.396936 3.44671C0.171817 5.12378 0.0652195 6.81464 0.0779365 8.50671C0.0179365 14.4527 0.577936 22.6167 0.956936 23.3247C1.22694 23.6417 1.60194 23.8517 2.01394 23.9137C4.58594 24.3537 7.18894 24.5877 9.79794 24.6117C13.4799 24.7117 17.5319 24.6617 20.1059 24.4617C21.0484 24.448 21.9822 24.2794 22.8699 23.9627C22.995 23.8862 23.0956 23.7755 23.1599 23.6437C23.2879 23.2897 23.3749 22.9207 23.4199 22.5457C23.6589 20.7497 23.8379 16.8677 23.8879 12.9857C23.9766 9.78388 23.8999 6.57961 23.6579 3.38571M22.8089 10.8097C22.7589 15.1307 22.5799 19.9307 22.3009 22.1257C22.3009 22.4657 22.1809 22.8147 22.1409 22.9747C21.5807 23.1096 21.0093 23.1933 20.4339 23.2247C18.3789 23.4137 15.1659 23.4937 11.9519 23.4837C8.778 23.5424 5.60379 23.3821 2.45194 23.0037C2.22079 22.9604 1.99391 22.8969 1.77394 22.8137C1.43594 21.8887 0.957936 15.8317 0.777936 10.5917C0.693322 8.37482 0.75345 6.15477 0.957936 3.94571C1.04794 3.21671 1.11794 2.70771 1.29694 2.58871C2.77394 1.65971 7.42394 1.40071 11.9939 1.49071C14.9218 1.51975 17.8436 1.76306 20.7359 2.21871C21.3526 2.28026 21.9537 2.44949 22.5119 2.71871C22.5119 2.80871 22.5919 3.05771 22.6219 3.28671C22.8119 4.65371 22.8519 7.64671 22.8119 10.8107" fill="white"/>
    <path fill-rule="evenodd" clip-rule="evenodd" d="M9.99798 4.76287C8.77082 4.97905 7.63079 5.54078 6.71168 6.38213C5.79256 7.22349 5.13251 8.30956 4.80898 9.51287C4.0979 11.836 4.33146 14.3458 5.45898 16.4979C6.0594 17.4558 6.86998 18.2646 7.82931 18.8628C8.78863 19.4611 9.87154 19.8332 10.996 19.9509C13.178 20.3342 15.4236 19.8587 17.263 18.6239C17.3338 18.5697 17.3809 18.4901 17.3942 18.4018C17.4074 18.3136 17.3859 18.2237 17.3341 18.151C17.2824 18.0784 17.2044 18.0287 17.1167 18.0124C17.029 17.9961 16.9384 18.0146 16.864 18.0639C15.1439 19.1331 13.0754 19.4913 11.096 19.0629C10.1217 18.9322 9.18917 18.5846 8.36709 18.0457C7.54501 17.5067 6.85434 16.7902 6.34598 15.9489C5.40576 14.0354 5.24479 11.8317 5.89698 9.80187C6.1552 8.80421 6.69049 7.9 7.44097 7.19375C8.19145 6.48751 9.12648 6.00808 10.138 5.81087C11.3339 5.5644 12.5685 5.57393 13.7606 5.83884C14.9526 6.10375 16.075 6.61804 17.054 7.34787C18.55 8.63487 19.488 10.7599 19.129 14.0829C19.0824 14.6101 18.9715 15.1296 18.799 15.6299C18.629 16.0999 18.389 16.5449 18.091 16.9469C18.0427 17.0121 18.0219 17.0937 18.0331 17.1741C18.0444 17.2545 18.0867 17.3273 18.151 17.3769C18.2175 17.4241 18.2999 17.4432 18.3803 17.4301C18.4608 17.417 18.5329 17.3728 18.581 17.3069C18.923 16.8669 19.198 16.3789 19.399 15.8599C19.606 15.3399 19.747 14.7969 19.818 14.2429C20.347 10.5609 19.308 8.17587 17.682 6.69887C16.6102 5.85238 15.3715 5.24225 14.0472 4.90858C12.7228 4.57491 11.3429 4.52526 9.99798 4.76287Z" fill="white"/>
    <path fill-rule="evenodd" clip-rule="evenodd" d="M12.5929 12.3876V11.7386C12.5129 10.7406 12.3129 9.42362 12.2829 9.11462C12.2829 9.03523 12.2514 8.95907 12.1953 8.90284C12.1393 8.84661 12.0633 8.81488 11.9839 8.81462C11.9436 8.81328 11.9035 8.82005 11.866 8.83452C11.8284 8.849 11.7942 8.87088 11.7652 8.89887C11.7363 8.92686 11.7133 8.96039 11.6976 8.99746C11.6819 9.03452 11.6738 9.07437 11.6739 9.11462C11.6739 9.42462 11.5049 10.7606 11.4849 11.7686V12.9066C11.4873 13.0466 11.542 13.1805 11.6382 13.2821C11.7345 13.3838 11.8653 13.4456 12.0049 13.4556C12.2929 13.4756 12.5829 13.4556 13.3509 13.4556H15.3469C15.4277 13.4411 15.5008 13.3987 15.5535 13.3357C15.6062 13.2727 15.6351 13.1932 15.6351 13.1111C15.6351 13.029 15.6062 12.9495 15.5535 12.8865C15.5008 12.8236 15.4277 12.7811 15.3469 12.7666L12.5929 12.3876Z" fill="url(#paint0_linear_7772_2571)"/>
  </g>
  <defs>
    <linearGradient id="paint0_linear_7772_2571" x1="15.99" y1="14.5547" x2="10.8868" y2="8.61662" gradientUnits="userSpaceOnUse">
      <stop offset="0.211538" stop-color="#FF66C4"/>
      <stop offset="1" stop-color="#4699FF"/>
    </linearGradient>
    <clipPath id="clip0_7772_2571">
      <rect width="24" height="24" fill="white" transform="translate(0 0.662109)"/>
    </clipPath>
  </defs>
</svg>