<svg width="24" height="25" viewBox="0 0 24 25" fill="none" xmlns="http://www.w3.org/2000/svg">
<path d="M21.8055 10.5356H21V10.4941H12V14.4941H17.6515C16.827 16.8226 14.6115 18.4941 12 18.4941C8.6865 18.4941 6 15.8076 6 12.4941C6 9.18064 8.6865 6.49414 12 6.49414C13.5295 6.49414 14.921 7.07114 15.9805 8.01364L18.809 5.18514C17.023 3.52064 14.634 2.49414 12 2.49414C6.4775 2.49414 2 6.97164 2 12.4941C2 18.0166 6.4775 22.4941 12 22.4941C17.5225 22.4941 22 18.0166 22 12.4941C22 11.8236 21.931 11.1691 21.8055 10.5356Z" fill="#FFC107"/>
<path d="M3.15234 7.83964L6.43784 10.2491C7.32684 8.04814 9.47984 6.49414 11.9993 6.49414C13.5288 6.49414 14.9203 7.07114 15.9798 8.01364L18.8083 5.18514C17.0223 3.52064 14.6333 2.49414 11.9993 2.49414C8.15834 2.49414 4.82734 4.66264 3.15234 7.83964Z" fill="#FF3D00"/>
<path d="M12.0002 22.4945C14.5832 22.4945 16.9302 21.506 18.7047 19.8985L15.6097 17.2795C14.5721 18.069 13.3039 18.4959 12.0002 18.4945C9.39916 18.4945 7.19066 16.836 6.35866 14.5215L3.09766 17.034C4.75266 20.2725 8.11366 22.4945 12.0002 22.4945Z" fill="#4CAF50"/>
<path d="M21.8055 10.5356H21V10.4941H12V14.4941H17.6515C17.2571 15.6023 16.5467 16.5707 15.608 17.2796L15.6095 17.2786L18.7045 19.8976C18.4855 20.0966 22 17.4941 22 12.4941C22 11.8236 21.931 11.1691 21.8055 10.5356Z" fill="#1976D2"/>
</svg>
