<svg width="81" height="67" viewBox="0 0 81 67" fill="none" xmlns="http://www.w3.org/2000/svg">
<path d="M59.0462 58.9756C55.7326 55.6719 53.5252 51.4216 52.7285 46.8107C51.788 38.8382 51.5182 30.8009 51.922 22.7833C51.8783 22.5432 51.7518 22.3261 51.5645 22.1698C51.3772 22.0135 51.141 21.9278 50.897 21.9278C50.6531 21.9278 50.4168 22.0135 50.2295 22.1698C50.0422 22.3261 49.9157 22.5432 49.8721 22.7833C49.2187 30.9698 49.2187 39.1954 49.8721 47.382C50.2686 49.7578 50.9138 52.0867 51.7876 54.3382C52.8376 56.3748 54.1234 58.281 55.6185 60.0174C49.5696 63.3779 29.978 61.8993 23.862 61.5968C18.4852 61.328 16.7713 62.3697 15.8304 58.2363C14.466 48.543 14.0832 38.7367 14.6878 28.9665C15.2632 25.2772 15.4322 21.5359 15.1919 17.8097C14.9567 16.0287 13.2092 16.8688 13.3437 18.213C12.1777 25.5967 11.5265 33.0526 11.3946 40.5266C11.3139 47.0896 11.7306 53.6493 12.638 60.1518C12.8919 61.4033 13.5191 62.5485 14.437 63.4364C15.3549 64.3242 16.5202 64.9131 17.7795 65.1253C19.6807 65.4203 21.602 65.5663 23.5259 65.5622C31.7121 66.3284 39.952 66.409 48.1582 65.7974C53.199 65.1925 61.869 63.0418 59.0462 58.9756Z" fill="url(#paint0_linear_7960_14077)"/>
<path d="M18.8839 17.777C24.6303 17.777 48.4561 18.7851 53.4968 17.777C54.1015 17.6505 54.6596 17.3598 55.1099 16.9368C56.3395 15.4198 57.1935 13.6338 57.6023 11.7242C58.0111 9.81466 57.9631 7.83555 57.4622 5.94806C55.6476 -0.0336008 50.0355 4.14873e-06 43.6842 4.14873e-06C37.3329 4.14873e-06 30.8472 0.537681 26.3778 0.336052C21.9083 0.134423 15.557 0.336052 15.2882 0.336052C10.3483 -0.201625 4.70265 3.22607 2.48473 12.4674C1.22623 20.2554 0.418374 28.1096 0.0651811 35.9908C-0.124037 44.2082 0.111511 52.43 0.770882 60.6231C0.880763 60.8858 1.08224 61.0998 1.33792 61.2252C1.5936 61.3507 1.88611 61.3791 2.16115 61.3052C2.43618 61.2313 2.67507 61.0601 2.83346 60.8234C2.99185 60.5867 3.05899 60.3006 3.0224 60.0182C2.61152 49.0084 3.09478 37.9835 4.46741 27.0519C5.40835 20.3309 5.24032 10.6863 9.77697 5.88085C10.3747 5.06355 11.1711 4.41236 12.0909 3.98895C13.0106 3.56555 14.0232 3.38395 15.0328 3.46135C16.0424 3.53875 17.0155 3.87259 17.86 4.43125C18.7044 4.98991 19.3923 5.7549 19.8584 6.65376C20.3499 8.08822 20.4047 9.63625 20.0158 11.1019C19.627 12.5675 18.812 13.8848 17.6741 14.8869C17.2036 15.1894 16.4643 17.7433 18.8839 17.777ZM22.2444 5.30956C20.7657 2.58757 19.6904 2.55397 20.1609 2.55397C22.4796 2.55397 24.7311 2.82281 26.0081 2.95723C32.3258 3.59572 44.8268 3.15886 50.5396 4.26782C51.4606 4.42313 52.2992 4.89334 52.9121 5.59816C53.525 6.30298 53.8742 7.1987 53.9001 8.13237C54.6394 15.391 51.0437 14.1812 49.8675 14.3157C42.5081 15.0886 27.3859 15.4582 19.9928 15.6262C21.314 14.3011 22.2257 12.6235 22.619 10.7941C23.0123 8.96463 22.8706 7.06063 22.2108 5.30956H22.2444Z" fill="white"/>
<path d="M28.7009 24.9684C27.2932 26.1176 26.0595 27.4646 25.038 28.9674C22.8872 32.059 23.0553 32.8992 22.0135 32.3279C21.8557 32.1974 21.6731 32.1004 21.4767 32.0426C21.2803 31.9849 21.0742 31.9676 20.871 31.9918C18.5858 32.9328 22.1479 36.8981 24.7691 35.3523C28.6673 32.2943 28.5665 29.0346 30.2467 26.5815C30.3932 26.365 30.4611 26.1049 30.439 25.8445C30.4169 25.5841 30.3063 25.3391 30.1254 25.1504C29.9446 24.9618 29.7046 24.8408 29.4453 24.8076C29.1861 24.7745 28.9233 24.8313 28.7009 24.9684ZM36.1612 34.6466C38.4082 34.5861 40.6485 34.4069 42.8821 34.1089C43.1851 34.1089 43.4758 33.9886 43.69 33.7743C43.9043 33.56 44.0247 33.2694 44.0247 32.9664C44.5288 29.8075 31.2212 30.7149 31.0196 32.3951C30.818 34.0753 35.6235 34.5794 36.1612 34.6466ZM27.5583 41.5356C25.5756 44.56 24.6347 45.3329 22.6184 48.6934C22.3179 48.6372 22.0248 48.547 21.7447 48.4246C21.6914 48.299 21.6131 48.1856 21.5147 48.0912C21.4163 47.9968 21.2998 47.9233 21.1721 47.8752C21.0445 47.8271 20.9084 47.8054 20.7722 47.8115C20.6359 47.8175 20.5023 47.8511 20.3794 47.9103C20.2565 47.9695 20.1469 48.053 20.0572 48.1557C19.9675 48.2585 19.8996 48.3784 19.8576 48.5081C19.8156 48.6379 19.8004 48.7748 19.8128 48.9106C19.8252 49.0465 19.8651 49.1784 19.93 49.2983C20.3635 50.2628 21.0323 51.1063 21.8791 51.7515C25.2396 54.1038 28.3984 46.3075 29.6418 42.5438C29.7544 42.2705 29.7584 41.9647 29.653 41.6886C29.5477 41.4125 29.3409 41.1871 29.0749 41.0584C28.8089 40.9297 28.5038 40.9074 28.2219 40.9961C27.9401 41.0848 27.7027 41.2778 27.5583 41.5356ZM43.6886 49.9368C43.8965 49.713 44.012 49.4189 44.012 49.1135C44.012 48.8081 43.8965 48.514 43.6886 48.2902C42.9829 47.282 39.3536 46.9796 38.5471 47.0132C36.1179 47.1668 33.7153 47.6067 31.3893 48.3238C31.0196 48.8279 30.8516 49.2311 31.1876 49.6008C31.5237 49.9704 30.7508 49.8024 35.6907 50.9113C38.3779 50.7948 41.052 50.469 43.6886 49.9368ZM80.1835 3.59577C78.2008 -2.38589 70.3036 0.672146 68.0521 3.93181C67.6412 4.53689 67.419 5.25029 67.4136 5.98171C61.936 6.72101 61.8016 15.0214 61.7008 20.1629C61.9361 27.5896 61.7008 29.6731 63.1458 29.5387C64.5908 29.4043 64.2212 28.1945 65.2629 20.3646C66.3047 12.5346 65.599 10.2831 67.4472 8.40125C67.7161 8.40125 67.4472 23.221 68.0857 24.6996C67.1784 28.2617 66.5735 46.1395 66.3383 51.0122C66.1142 52.661 66.047 54.3189 66.1367 55.9857C66.897 58.8758 68.7059 61.3795 71.211 63.0091C73.2945 64.0508 74.5715 62.0682 75.2772 60.6231C77.1446 58.3848 78.1251 55.5387 78.0327 52.6252C78.0327 44.7617 77.8311 50.4409 78.7048 24.1283C79.3931 22.1824 79.7784 20.1423 79.8474 18.0794C80.2843 13.6772 81.2252 6.68741 80.1835 3.59577ZM71.0093 6.25055C71.8892 5.39184 72.9781 4.77788 74.1682 4.46949C75.9829 4.13344 76.0501 3.96542 76.3861 4.67112C76.6415 5.27601 76.7894 5.92458 76.823 6.58659C76.9519 12.0035 76.7611 17.4233 76.2517 22.8177C75.9493 22.8177 75.378 23.0866 75.1763 23.0866H70.1356C69.9004 21.1375 69.8332 25.6069 71.0093 6.25055ZM71.9503 58.8085C71.0414 57.8486 70.3533 56.7017 69.934 55.448C70.2028 46.6435 69.3291 32.832 69.934 25.5733C71.9996 25.7749 74.0719 25.8422 76.1509 25.7749L74.5715 46.5763C74.2354 55.784 74.6051 54.6079 71.9503 58.6741V58.8085Z" fill="white"/>
<defs>
<linearGradient id="paint0_linear_7960_14077" x1="63.7218" y1="77.7869" x2="10.4266" y2="9.98445" gradientUnits="userSpaceOnUse">
<stop offset="0.211538" stop-color="#FF66C4"/>
<stop offset="1" stop-color="#4699FF"/>
</linearGradient>
</defs>
</svg>
