<svg xmlns="http://www.w3.org/2000/svg" width="24" height="25" viewBox="0 0 24 25" fill="none">
  <g clip-path="url(#clip0_7772_2526)">
    <path fill-rule="evenodd" clip-rule="evenodd" d="M22.677 15.7797C21.865 14.5477 17.587 10.3597 16.515 9.22771C14.842 7.4537 13.689 5.4797 11.505 4.9897C10.133 4.6687 3.18904 5.52971 4.29104 6.67271C4.32365 6.70612 4.36261 6.73267 4.40563 6.7508C4.44865 6.76893 4.49486 6.77827 4.54154 6.77827C4.58823 6.77827 4.63444 6.76893 4.67746 6.7508C4.72048 6.73267 4.75944 6.70612 4.79204 6.67271C5.27304 6.20171 8.69004 5.7407 11.325 5.8407C12.5335 6.26511 13.5665 7.07956 14.261 8.1557C15.713 9.9787 20.883 15.3487 21.565 16.2707C21.685 16.4514 21.7884 16.6417 21.875 16.8417C20.5063 18.9274 18.8423 20.8036 16.935 22.4117C16.2839 22.9506 15.5309 23.3529 14.721 23.5947C13.2013 22.448 11.7526 21.2101 10.383 19.8877C8.7556 18.2593 7.21066 16.5505 5.75405 14.7677C5.04719 13.7439 4.67607 12.5257 4.69204 11.2817C4.69204 11.1994 4.65933 11.1204 4.6011 11.0621C4.54287 11.0039 4.46389 10.9712 4.38154 10.9712C4.29919 10.9712 4.22022 11.0039 4.16199 11.0621C4.10376 11.1204 4.07104 11.1994 4.07104 11.2817C4.20104 14.1067 4.80204 14.8077 6.62604 16.9917C8.64493 19.6014 10.9729 21.9566 13.559 24.0057C13.7603 24.2853 14.0475 24.4914 14.3768 24.5927C14.7061 24.694 15.0594 24.6848 15.383 24.5667C17.998 23.7647 20.953 19.9677 22.456 18.0547C23.017 17.3227 23.379 16.8717 22.677 15.7797Z" fill="white"/>
    <path fill-rule="evenodd" clip-rule="evenodd" d="M8.72009 10.42C9.10009 9.35798 9.21009 8.77698 8.35009 8.10498C8.11777 7.90985 7.84767 7.76478 7.55669 7.67886C7.26572 7.59294 6.96013 7.56802 6.65908 7.60567C6.35803 7.64331 6.06799 7.7427 5.80713 7.89762C5.54627 8.05254 5.3202 8.25965 5.14309 8.50598C4.27342 7.98042 3.50633 7.30142 2.87909 6.50198C1.71609 5.19998 0.594088 3.02598 1.89709 1.89398C2.44709 1.40298 3.42009 1.66398 4.37209 2.22398C6.56609 3.47698 6.48609 4.78898 7.08709 4.42798C7.92809 3.91798 5.32309 1.66298 4.22109 1.11198C1.62609 -0.200018 -0.126912 1.56298 0.164088 3.75698C0.524088 6.42198 2.63809 8.22598 4.98309 9.38698C5.44309 12.334 8.34909 11.492 8.72009 10.42ZM8.32009 9.54798C8.28426 9.85117 8.14231 10.1319 7.91936 10.3405C7.69641 10.549 7.40686 10.672 7.10196 10.6876C6.79706 10.7031 6.49648 10.6103 6.25345 10.4255C6.01042 10.2408 5.84061 9.97595 5.77409 9.67798C6.21509 9.83798 6.61609 9.83798 6.65609 9.57798C6.69609 9.31798 6.13509 9.03798 5.74409 8.82698C6.86609 7.48398 8.56109 8.72698 8.32009 9.54798Z" fill="url(#paint0_linear_7772_2526)"/>
    <path fill-rule="evenodd" clip-rule="evenodd" d="M23.0881 7.29354C19.5311 5.76054 20.4921 6.18154 15.5231 4.82854C15.4431 4.82854 14.9321 4.57854 14.6511 4.76854C14.606 4.81172 14.5736 4.86646 14.5574 4.9268C14.5413 4.98714 14.542 5.05075 14.5596 5.1107C14.5771 5.17064 14.6108 5.22462 14.6569 5.26674C14.703 5.30886 14.7598 5.3375 14.8211 5.34954C15.5058 5.54954 16.1741 5.79354 16.8261 6.08154C18.6888 6.94751 20.6062 7.69044 22.5661 8.30554C23.3981 8.67554 22.0161 11.6215 22.0261 12.3135C22.0261 12.4064 22.063 12.4954 22.1286 12.561C22.1943 12.6267 22.2833 12.6635 22.3761 12.6635C22.469 12.6635 22.558 12.6267 22.6236 12.561C22.6893 12.4954 22.7261 12.4064 22.7261 12.3135C22.7561 11.4815 25.0211 8.35554 23.0881 7.29354ZM9.84213 12.9045C9.76026 12.8582 9.69045 12.7932 9.63834 12.7148C9.58622 12.6365 9.55326 12.547 9.54213 12.4535C9.55094 12.4004 9.54808 12.346 9.53374 12.2941C9.51941 12.2422 9.49394 12.194 9.45911 12.1529C9.42428 12.1118 9.38093 12.0788 9.33206 12.0562C9.28319 12.0336 9.22998 12.0218 9.17613 12.0218C9.12227 12.0218 9.06906 12.0336 9.02019 12.0562C8.97132 12.0788 8.92797 12.1118 8.89314 12.1529C8.85831 12.194 8.83285 12.2422 8.81851 12.2941C8.80417 12.346 8.80131 12.4004 8.81013 12.4535C8.77936 12.7392 8.83918 13.0273 8.98113 13.2771C9.12307 13.5269 9.33997 13.7258 9.60113 13.8455C9.75237 13.9143 9.91571 13.9526 10.0818 13.9581C10.2478 13.9637 10.4134 13.9364 10.5689 13.8779C10.7244 13.8194 10.8668 13.7308 10.988 13.6171C11.1092 13.5034 11.2068 13.367 11.2751 13.2155C11.4051 12.9855 11.4761 12.7275 11.4851 12.4635C11.4892 12.2347 11.452 12.0071 11.3751 11.7915C11.1251 11.1015 10.7641 10.6395 11.8451 11.5015C11.9019 11.5546 11.9754 11.586 12.053 11.5902C12.1305 11.5945 12.2071 11.5714 12.2693 11.5249C12.3315 11.4784 12.3754 11.4115 12.3932 11.336C12.4111 11.2604 12.4019 11.181 12.3671 11.1115C11.7361 10.3195 10.9841 9.61754 10.2331 10.4395C10.1224 10.5792 10.0421 10.7405 9.99731 10.9131C9.95254 11.0856 9.9443 11.2656 9.97313 11.4415C9.97313 11.7715 10.1831 12.0725 10.2331 12.4435C10.262 12.5415 10.262 12.6456 10.2331 12.7435C10.1231 12.8835 9.99313 12.9935 9.84213 12.9035M13.8401 12.2025C13.6055 12.2025 13.3781 12.2425 13.1581 12.3225C12.8545 12.4351 12.5757 12.6056 12.3371 12.8245C12.0518 13.1045 11.7845 13.4015 11.5351 13.7155L11.0651 14.2565L10.5331 14.8975C10.4881 14.9621 10.4677 15.0406 10.4754 15.1189C10.4832 15.1973 10.5187 15.2702 10.5756 15.3246C10.6324 15.3791 10.7069 15.4114 10.7854 15.4158C10.864 15.4202 10.9416 15.3963 11.0041 15.3485L11.6151 14.8185L11.7551 14.7085V14.8085C11.8103 14.9383 11.9094 15.0446 12.0351 15.1085C12.1961 15.2085 12.3371 15.2385 12.4971 15.3285C12.2671 15.5585 12.0271 15.8095 11.8061 16.0105C11.768 16.0414 11.7364 16.0795 11.713 16.1225C11.6897 16.1656 11.675 16.2129 11.6699 16.2617C11.6648 16.3104 11.6693 16.3597 11.6833 16.4067C11.6972 16.4537 11.7203 16.4975 11.7511 16.5355C11.782 16.5736 11.82 16.6053 11.8631 16.6286C11.9062 16.652 11.9535 16.6667 12.0022 16.6718C12.051 16.6769 12.1003 16.6723 12.1473 16.6584C12.1943 16.6445 12.238 16.6214 12.2761 16.5905C12.7271 16.2705 13.2791 15.9005 13.7391 15.4895C14.0811 15.1929 14.3818 14.8589 14.6411 14.4875C14.8391 14.1235 14.9201 13.7075 14.8711 13.2945C14.859 13.1183 14.812 12.9462 14.7331 12.7881C14.6542 12.63 14.5447 12.4892 14.4111 12.3735C14.2392 12.2673 14.0422 12.2076 13.8401 12.2025ZM13.7001 13.9375C13.5353 14.251 13.3331 14.5435 13.0981 14.8085C13.0659 14.6467 13.0156 14.4891 12.9481 14.3385C12.8889 14.2034 12.7916 14.0883 12.6681 14.0075C12.7881 13.9075 12.9081 13.8075 13.0381 13.7175C13.1681 13.6265 14.2211 12.9555 13.7001 13.9375ZM15.3521 15.1485L13.9401 16.1505C13.6576 16.3873 13.411 16.6638 13.2081 16.9715C13.1234 17.1359 13.0792 17.3181 13.0792 17.503C13.0792 17.688 13.1234 17.8702 13.2081 18.0345L13.4381 18.4345L13.7691 18.8255C13.8326 18.8974 13.9215 18.9419 14.0171 18.9495C14.1127 18.9571 14.2076 18.9273 14.2816 18.8663C14.3557 18.8054 14.4031 18.718 14.4141 18.6227C14.425 18.5275 14.3985 18.4317 14.3401 18.3555L14.2101 18.0335L14.1101 17.6935V17.5935C14.1101 17.5635 14.2501 17.4635 14.3201 17.3935L14.7711 16.9715L15.7731 15.5995C15.8126 15.5725 15.8457 15.5372 15.8701 15.4961C15.8946 15.455 15.9098 15.4091 15.9147 15.3615C15.9197 15.3139 15.9142 15.2659 15.8987 15.2206C15.8833 15.1754 15.8581 15.134 15.8251 15.0994C15.7921 15.0648 15.7519 15.0379 15.7074 15.0203C15.6629 15.0028 15.6151 14.9952 15.5674 14.9979C15.5196 15.0007 15.4731 15.0138 15.4309 15.0364C15.3887 15.0589 15.3519 15.0904 15.3231 15.1285L15.3521 15.1485ZM17.1061 17.9735L17.2561 18.1935C17.3188 18.2595 17.3855 18.3199 17.4561 18.3745C18.2681 19.0155 18.3981 18.9455 18.5491 18.8355C18.6991 18.7255 18.8691 18.6855 18.3791 17.6435C18.3354 17.5513 18.2818 17.4641 18.2191 17.3835C18.1517 17.3034 18.074 17.2325 17.9881 17.1725C17.1761 16.6315 16.9861 16.7415 15.8231 17.6725C15.6931 17.7735 15.6031 17.9035 15.4831 18.0135C15.3531 18.1435 15.2131 18.2635 15.0931 18.4045C14.9691 18.5719 14.8618 18.7489 14.7711 18.9355C14.6831 19.1265 14.6411 19.3355 14.6511 19.5465C14.6751 19.7945 14.7611 20.0325 14.9011 20.2385C15.0321 20.4185 15.6931 21.2405 16.0641 20.8185C16.4341 20.3985 15.9541 20.2985 15.7541 19.8675C15.723 19.7631 15.723 19.6519 15.7541 19.5475L15.9541 19.3265L16.0541 19.4065C16.8651 19.9175 16.9961 19.8265 17.1261 19.7065C17.2561 19.5865 17.3661 19.4465 16.9161 18.6055C16.8778 18.5279 16.8272 18.457 16.7661 18.3955L17.1461 17.9335C17.1381 17.9513 17.1239 17.9655 17.1061 17.9735Z" fill="white"/>
  </g>
  <defs>
    <linearGradient id="paint0_linear_7772_2526" x1="9.76416" y1="13.9316" x2="-2.13645" y2="1.12505" gradientUnits="userSpaceOnUse">
      <stop offset="0.211538" stop-color="#FF66C4"/>
      <stop offset="1" stop-color="#4699FF"/>
    </linearGradient>
    <clipPath id="clip0_7772_2526">
      <rect width="24" height="24" fill="white" transform="translate(0 0.662109)"/>
    </clipPath>
  </defs>
</svg>